HIERARCHY
ROOT Hips
{
  OFFSET -0.196171 207.375 -1.77214
  CHANNELS 6 Xposition Yposition Zposition Zrotation Xrotation Yrotation
  JOINT Spine
  {
    OFFSET -0.2002 19.8047 -3.8901
    CHANNELS 6 Xposition Yposition Zposition Zrotation Xrotation Yrotation
    JOINT Spine1
    {
      OFFSET -0.2704 23.5003 -2.3603
      CHANNELS 6 Xposition Yposition Zposition Zrotation Xrotation Yrotation
      JOINT Spine2
      {
        OFFSET -0.1091 27.8076 -1.1954
        CHANNELS 6 Xposition Yposition Zposition Zrotation Xrotation Yrotation
        JOINT Neck
        {
          OFFSET 0.573 31.0619 3.7617
          CHANNELS 6 Xposition Yposition Zposition Zrotation Xrotation Yrotation
          JOINT Head
          {
            OFFSET 1.0419 22.231 6.5135
            CHANNELS 6 Xposition Yposition Zposition Zrotation Xrotation Yrotation
            JOINT HeadTop_End
            {
              OFFSET 0.1539 38.3123 10.8264
              CHANNELS 6 Xposition Yposition Zposition Zrotation Xrotation Yrotation
              End Site
              {
                OFFSET 0 0 0
              }
            }
            JOINT RightEye
            {
              OFFSET -6.1169 16.4759 16.457
              CHANNELS 6 Xposition Yposition Zposition Zrotation Xrotation Yrotation
              End Site
              {
                OFFSET 0 0 0
              }
            }
            JOINT LeftEye
            {
              OFFSET 6.0855 16.7363 16.7604
              CHANNELS 6 Xposition Yposition Zposition Zrotation Xrotation Yrotation
              End Site
              {
                OFFSET 0 0 0
              }
            }
          }
        }
        JOINT LeftShoulder
        {
          OFFSET 12.9541 18.8948 2.6782
          CHANNELS 6 Xposition Yposition Zposition Zrotation Xrotation Yrotation
          JOINT LeftArm
          {
            OFFSET 26.2666 0.5486 -4.0542
            CHANNELS 6 Xposition Yposition Zposition Zrotation Xrotation Yrotation
            JOINT LeftForeArm
            {
              OFFSET 54.6704 0.9321 7.0242
              CHANNELS 6 Xposition Yposition Zposition Zrotation Xrotation Yrotation
              JOINT LeftHand
              {
                OFFSET 52.4557 -0.9324 5.7058
                CHANNELS 6 Xposition Yposition Zposition Zrotation Xrotation Yrotation
                JOINT LeftHandMiddle1
                {
                  OFFSET 27.3527 -0.3203 4.6354
                  CHANNELS 6 Xposition Yposition Zposition Zrotation Xrotation Yrotation
                  JOINT LeftHandMiddle2
                  {
                    OFFSET 6.9025 0.1377 0.6199
                    CHANNELS 6 Xposition Yposition Zposition Zrotation Xrotation Yrotation
                    JOINT LeftHandMiddle3
                    {
                      OFFSET 6.7755 -0.2326 0.7745
                      CHANNELS 6 Xposition Yposition Zposition Zrotation Xrotation Yrotation
                      End Site
                      {
                        OFFSET 7.3547 0.1793 0.7264
                      }
                    }
                  }
                }
                JOINT LeftHandThumb1
                {
                  OFFSET 9.8642 -2.831 8.1733
                  CHANNELS 6 Xposition Yposition Zposition Zrotation Xrotation Yrotation
                  JOINT LeftHandThumb2
                  {
                    OFFSET 8.0692 -4.4193 6.4299
                    CHANNELS 6 Xposition Yposition Zposition Zrotation Xrotation Yrotation
                    JOINT LeftHandThumb3
                    {
                      OFFSET 6.7468 -3.6274 4.6394
                      CHANNELS 6 Xposition Yposition Zposition Zrotation Xrotation Yrotation
                      End Site
                      {
                        OFFSET 4.2603 -2.2543 3.2163
                      }
                    }
                  }
                }
                JOINT LeftHandIndex1
                {
                  OFFSET 27.224 -0.2989 9.8593
                  CHANNELS 6 Xposition Yposition Zposition Zrotation Xrotation Yrotation
                  JOINT LeftHandIndex2
                  {
                    OFFSET 7.0183 -0.1543 0.777
                    CHANNELS 6 Xposition Yposition Zposition Zrotation Xrotation Yrotation
                    JOINT LeftHandIndex3
                    {
                      OFFSET 6.4569 -0.1256 0.6937
                      CHANNELS 6 Xposition Yposition Zposition Zrotation Xrotation Yrotation
                      End Site
                      {
                        OFFSET 6.5573 0.0216 0.6882
                      }
                    }
                  }
                }
                JOINT LeftHandRing1
                {
                  OFFSET 25.8273 -0.6126 0.0868
                  CHANNELS 6 Xposition Yposition Zposition Zrotation Xrotation Yrotation
                  JOINT LeftHandRing2
                  {
                    OFFSET 6.2955 0.1052 0.4118
                    CHANNELS 6 Xposition Yposition Zposition Zrotation Xrotation Yrotation
                    JOINT LeftHandRing3
                    {
                      OFFSET 6.315 0.079 0.7471
                      CHANNELS 6 Xposition Yposition Zposition Zrotation Xrotation Yrotation
                      End Site
                      {
                        OFFSET 7.0267 -0.2247 0.3259
                      }
                    }
                  }
                }
                JOINT LeftHandPinky1
                {
                  OFFSET 23.0359 -1.5146 -4.9212
                  CHANNELS 6 Xposition Yposition Zposition Zrotation Xrotation Yrotation
                  JOINT LeftHandPinky2
                  {
                    OFFSET 6.5099 0.2003 0.5558
                    CHANNELS 6 Xposition Yposition Zposition Zrotation Xrotation Yrotation
                    JOINT LeftHandPinky3
                    {
                      OFFSET 4.1296 -0.0413 0.3994
                      CHANNELS 6 Xposition Yposition Zposition Zrotation Xrotation Yrotation
                      End Site
                      {
                        OFFSET 5.5376 -0.0117 0.536
                      }
                    }
                  }
                }
              }
            }
          }
        }
        JOINT RightShoulder
        {
          OFFSET -12.6373 19.2153 2.1809
          CHANNELS 6 Xposition Yposition Zposition Zrotation Xrotation Yrotation
          JOINT RightArm
          {
            OFFSET -26.3323 0.6126 -5.423
            CHANNELS 6 Xposition Yposition Zposition Zrotation Xrotation Yrotation
            JOINT RightForeArm
            {
              OFFSET -55.8405 -0.451 -0.1976
              CHANNELS 6 Xposition Yposition Zposition Zrotation Xrotation Yrotation
              JOINT RightHand
              {
                OFFSET -50.2693 -0.9952 1.8626
                CHANNELS 6 Xposition Yposition Zposition Zrotation Xrotation Yrotation
                JOINT RightHandMiddle1
                {
                  OFFSET -26.0132 -0.6833 1.5036
                  CHANNELS 6 Xposition Yposition Zposition Zrotation Xrotation Yrotation
                  JOINT RightHandMiddle2
                  {
                    OFFSET -6.1576 0.141 0.0941
                    CHANNELS 6 Xposition Yposition Zposition Zrotation Xrotation Yrotation
                    JOINT RightHandMiddle3
                    {
                      OFFSET -7.2704 -0.3348 0.122
                      CHANNELS 6 Xposition Yposition Zposition Zrotation Xrotation Yrotation
                      End Site
                      {
                        OFFSET -7.4586 -0.0347 0.1367
                      }
                    }
                  }
                }
                JOINT RightHandThumb1
                {
                  OFFSET -9.0209 -3.67 6.9854
                  CHANNELS 6 Xposition Yposition Zposition Zrotation Xrotation Yrotation
                  JOINT RightHandThumb2
                  {
                    OFFSET -7.9552 -4.0356 5.2472
                    CHANNELS 6 Xposition Yposition Zposition Zrotation Xrotation Yrotation
                    JOINT RightHandThumb3
                    {
                      OFFSET -6.5146 -3.6908 4.179
                      CHANNELS 6 Xposition Yposition Zposition Zrotation Xrotation Yrotation
                      End Site
                      {
                        OFFSET -4.5331 -2.546 3.2641
                      }
                    }
                  }
                }
                JOINT RightHandIndex1
                {
                  OFFSET -26.2498 -0.8312 6.6599
                  CHANNELS 6 Xposition Yposition Zposition Zrotation Xrotation Yrotation
                  JOINT RightHandIndex2
                  {
                    OFFSET -7.0902 0.0154 0.1648
                    CHANNELS 6 Xposition Yposition Zposition Zrotation Xrotation Yrotation
                    JOINT RightHandIndex3
                    {
                      OFFSET -7.4109 -0.1674 0.1538
                      CHANNELS 6 Xposition Yposition Zposition Zrotation Xrotation Yrotation
                      End Site
                      {
                        OFFSET -5.5182 -0.1567 0.1502
                      }
                    }
                  }
                }
                JOINT RightHandRing1
                {
                  OFFSET -24.2596 -0.9504 -2.5755
                  CHANNELS 6 Xposition Yposition Zposition Zrotation Xrotation Yrotation
                  JOINT RightHandRing2
                  {
                    OFFSET -6.8571 -0.0068 -0.072
                    CHANNELS 6 Xposition Yposition Zposition Zrotation Xrotation Yrotation
                    JOINT RightHandRing3
                    {
                      OFFSET -6.8326 -0.1266 0.154
                      CHANNELS 6 Xposition Yposition Zposition Zrotation Xrotation Yrotation
                      End Site
                      {
                        OFFSET -6.0143 -0.1431 -0.1193
                      }
                    }
                  }
                }
                JOINT RightHandPinky1
                {
                  OFFSET -21.4052 -1.733 -7.2503
                  CHANNELS 6 Xposition Yposition Zposition Zrotation Xrotation Yrotation
                  JOINT RightHandPinky2
                  {
                    OFFSET -5.9395 0.0245 0.0143
                    CHANNELS 6 Xposition Yposition Zposition Zrotation Xrotation Yrotation
                    JOINT RightHandPinky3
                    {
                      OFFSET -3.7637 -0.0874 0.0158
                      CHANNELS 6 Xposition Yposition Zposition Zrotation Xrotation Yrotation
                      End Site
                      {
                        OFFSET -6.37 0.0165 0.0774
                      }
                    }
                  }
                }
              }
            }
          }
        }
      }
    }
  }
  JOINT LeftUpLeg
  {
    OFFSET 18.5282 -13.8334 2.6624
    CHANNELS 6 Xposition Yposition Zposition Zrotation Xrotation Yrotation
    JOINT LeftLeg
    {
      OFFSET -0.3759 -85.1833 -3.2383
      CHANNELS 6 Xposition Yposition Zposition Zrotation Xrotation Yrotation
      JOINT LeftFoot
      {
        OFFSET 0.4815 -85.4161 -5.1266
        CHANNELS 6 Xposition Yposition Zposition Zrotation Xrotation Yrotation
        JOINT LeftToeBase
        {
          OFFSET 2.6925 -21.3949 24.2907
          CHANNELS 6 Xposition Yposition Zposition Zrotation Xrotation Yrotation
          End Site
          {
            OFFSET -0.3295 0.2505 19.0603
          }
        }
      }
    }
  }
  JOINT RightUpLeg
  {
    OFFSET -18.4363 -14.4167 0.1605
    CHANNELS 6 Xposition Yposition Zposition Zrotation Xrotation Yrotation
    JOINT RightLeg
    {
      OFFSET 1.6634 -84.7366 -3.3661
      CHANNELS 6 Xposition Yposition Zposition Zrotation Xrotation Yrotation
      JOINT RightFoot
      {
        OFFSET 0.5261 -85.2452 -5.4264
        CHANNELS 6 Xposition Yposition Zposition Zrotation Xrotation Yrotation
        JOINT RightToeBase
        {
          OFFSET -3.1537 -21.4911 24.8182
          CHANNELS 6 Xposition Yposition Zposition Zrotation Xrotation Yrotation
          End Site
          {
            OFFSET -2.7312 0.2249 19.5108
          }
        }
      }
    }
  }
}
MOTION
Frames:	4
Frame Time:	0.0333333
7.92066 206.73 5.31921 2.12736 -1.578 5.84894 -0.2002 19.8047 -3.8901 -0.305083 5.93485 -2.83478 -0.2704 23.5003 -2.3603 0.0380729 0.449599 -0.778681 -0.1091 27.8076 -1.1954 0.0420996 0.450124 -0.778213 0.573 31.0619 3.7617 -0.257417 -1.22644 -0.133589 1.0419 22.231 6.5135 -2.17738 -3.29147 -3.18447 0.1539 38.3123 10.8264 2.54693e-016 -9.93923e-017 -0 -6.1169 16.4759 16.457 2.54693e-016 -9.93923e-017 -0 6.0855 16.7363 16.7604 2.54693e-016 -9.93923e-017 -0 12.9541 18.8948 2.6782 -19.3873 2.19361 -5.04063 26.2666 0.5486 -4.0542 -59.2354 11.33 -5.66706 54.6704 0.9321 7.0242 1.88438 -0.498527 -15.7545 52.4557 -0.9324 5.7058 11.7177 1.85818 -5.92898 27.3527 -0.3203 4.6354 -33.4281 4.02502 0.254809 6.9025 0.1377 0.6199 -21.1021 1.82785 1.9226 6.7755 -0.2326 0.7745 -17.5234 1.95032 -0.467029 9.8642 -2.831 8.1733 11.3723 -5.36211 -2.21475 8.0692 -4.4193 6.4299 -6.3005 15.3881 18.3463 6.7468 -3.6274 4.6394 13.1537 -21.6539 -11.6467 27.224 -0.2989 9.8593 -21.7256 2.63027 -3.68489 7.0183 -0.1543 0.777 -22.4624 2.38195 0.498647 6.4569 -0.1256 0.6937 -9.6065 1.02004 0.0231972 25.8273 -0.6126 0.0868 -34.5249 4.09212 1.47536 6.2955 0.1052 0.4118 -34.911 2.01263 3.94214 6.315 0.079 0.7471 -6.72598 0.749597 -3.96205 23.0359 -1.5146 -4.9212 -31.8226 3.86666 0.284008 6.5099 0.2003 0.5558 -19.2288 1.57524 1.07572 4.1296 -0.0413 0.3994 -13.8568 1.31511 0.267177 -12.6373 19.2153 2.1809 16.9589 0.648179 -0.713826 -26.3323 0.6126 -5.423 63.7855 4.75283 -4.79082 -55.8405 -0.451 -0.1976 -0.65796 -0.171226 8.1173 -50.2693 -0.9952 1.8626 1.65857 13.0241 1.51329 -26.0132 -0.6833 1.5036 45.9392 0.764334 -2.04879 -6.1576 0.141 0.0941 41.753 0.571261 -0.342884 -7.2704 -0.3348 0.122 24.9113 0.403733 -0.195973 -9.0209 -3.67 6.9854 -6.11652 -9.121 4.6053 -7.9552 -4.0356 5.2472 -5.44277 14.1528 -21.8494 -6.5146 -3.6908 4.179 -17.5509 -10.1658 14.16 -26.2498 -0.8312 6.6599 30.2803 0.841425 0.831708 -7.0902 0.0154 0.1648 45.8142 0.932924 -0.310855 -7.4109 -0.1674 0.1538 25.8425 0.521535 -0.519446 -24.2596 -0.9504 -2.5755 52.4696 0.82546 -4.19663 -6.8571 -0.0068 -0.072 41.0149 -0.400023 -1.81 -6.8326 -0.1266 0.154 24.9895 0.48747 2.2718 -21.4052 -1.733 -7.2503 55.0116 0.0860234 -1.56322 -5.9395 0.0245 0.0143 45.5256 0.0756601 -0.20202 -3.7637 -0.0874 0.0158 35.8691 0.13195 -0.545066 18.5282 -13.8334 2.6624 -6.1428 -3.2583 5.16015 -0.3759 -85.1833 -3.2383 -0.000226711 13.9688 -5.03938 0.4815 -85.4161 -5.1266 5.48475 -6.84559 -0.0269535 2.6925 -21.3949 24.2907 5.04717e-007 -2.82094 3.28953e-006 -18.4363 -14.4167 0.1605 -7.14446 -27.6647 -8.5066 1.6634 -84.7366 -3.3661 -3.56944 43.5271 -7.00187 0.5261 -85.2452 -5.4264 4.94582 0.907131 -0.370099 -3.1537 -21.4911 24.8182 3.44265e-007 -4.7866 2.18499e-007 
7.68085 206.058 3.6199 2.39033 -0.943791 6.86783 -0.2002 19.8047 -3.8901 -0.420848 5.76235 -3.80026 -0.2704 23.5003 -2.3603 -0.0100557 0.469122 -1.03586 -0.1091 27.8076 -1.1954 -0.00442483 0.47094 -1.03432 0.573 31.0619 3.7617 -0.283219 -1.29916 -0.0737764 1.0419 22.231 6.5135 -1.91637 -3.80879 -3.07593 0.1539 38.3123 10.8264 -3.54085e-016 0 -7.95139e-016 -6.1169 16.4759 16.457 -3.54085e-016 0 -7.95139e-016 6.0855 16.7363 16.7604 -3.54085e-016 0 -7.95139e-016 12.9541 18.8948 2.6782 -19.2182 2.35617 -5.72423 26.2666 0.5486 -4.0542 -55.6206 12.1275 -10.2562 54.6704 0.9321 7.0242 1.86525 -0.53652 -18.1573 52.4557 -0.9324 5.7058 11.9974 0.144402 -7.38762 27.3527 -0.3203 4.6354 -33.3382 4.0158 0.256467 6.9025 0.1377 0.6199 -21.0867 1.8266 1.922 6.7755 -0.2326 0.7745 -17.5166 1.94958 -0.467315 9.8642 -2.831 8.1733 11.3723 -5.36211 -2.21475 8.0692 -4.4193 6.4299 -6.23909 15.3732 18.229 6.7468 -3.6274 4.6394 13.1366 -21.6688 -11.6438 27.224 -0.2989 9.8593 -21.6903 2.62619 -3.6883 7.0183 -0.1543 0.777 -22.5537 2.39097 0.503298 6.4569 -0.1256 0.6937 -9.65147 1.02474 0.0244164 25.8273 -0.6126 0.0868 -34.4016 4.08043 1.43344 6.2955 0.1052 0.4118 -34.8967 2.01194 3.9415 6.315 0.079 0.7471 -6.65466 0.7413 -3.96365 23.0359 -1.5146 -4.9212 -31.5415 3.83833 0.243734 6.5099 0.2003 0.5558 -19.095 1.5648 1.07104 4.1296 -0.0413 0.3994 -13.7059 1.3012 0.262585 -12.6373 19.2153 2.1809 16.9407 0.596213 -0.931126 -26.3323 0.6126 -5.423 64.3923 4.0317 -7.35207 -55.8405 -0.451 -0.1976 -0.65859 -0.167057 7.90433 -50.2693 -0.9952 1.8626 2.37674 13.6552 1.07957 -26.0132 -0.6833 1.5036 44.9457 0.75032 -2.17916 -6.1576 0.141 0.0941 40.8942 0.56189 -0.333691 -7.2704 -0.3348 0.122 24.1924 0.39298 -0.190418 -9.0209 -3.67 6.9854 -6.11652 -9.121 4.6053 -7.9552 -4.0356 5.2472 -5.67573 13.9674 -21.477 -6.5146 -3.6908 4.179 -17.6816 -10.2049 14.1856 -26.2498 -0.8312 6.6599 28.889 0.801231 0.790702 -7.0902 0.0154 0.1648 44.2677 0.908818 -0.284149 -7.4109 -0.1674 0.1538 24.824 0.502934 -0.509278 -24.2596 -0.9504 -2.5755 51.8401 0.819968 -4.32341 -6.8571 -0.0068 -0.072 40.4091 -0.394533 -1.81338 -6.8326 -0.1266 0.154 24.4477 0.476682 2.27759 -21.4052 -1.733 -7.2503 54.1916 0.00974379 -1.77812 -5.9395 0.0245 0.0143 44.9913 0.0752779 -0.200588 -3.7637 -0.0874 0.0158 35.391 0.130681 -0.543362 18.5282 -13.8334 2.6624 -5.93095 -0.977926 5.62304 -0.3759 -85.1833 -3.2383 -0.109717 13.8582 -6.47341 0.4815 -85.4161 -5.1266 5.40124 -9.12273 0.13439 2.6925 -21.3949 24.2907 5.40592e-007 -3.14003 1.42103e-006 -18.4363 -14.4167 0.1605 -8.44695 -29.5846 -9.67625 1.6634 -84.7366 -3.3661 -2.64404 33.7941 -8.12446 0.5261 -85.2452 -5.4264 5.80847 0.935655 -1.67104 -3.1537 -21.4911 24.8182 -3.77325e-007 -4.62261 -8.14805e-006 
7.46055 204.79 1.80562 2.7841 0.0211147 7.76067 -0.2002 19.8047 -3.8901 -0.638251 5.27405 -4.54196 -0.2704 23.5003 -2.3603 -0.0551972 0.415019 -1.23073 -0.1091 27.8076 -1.1954 -0.049048 0.418268 -1.22876 0.573 31.0619 3.7617 -0.347249 -1.33412 -0.027808 1.0419 22.231 6.5135 -1.7713 -4.13919 -3.14031 0.1539 38.3123 10.8264 -2.20527e-016 9.93923e-017 -3.97569e-016 -6.1169 16.4759 16.457 -2.20527e-016 9.93923e-017 -3.97569e-016 6.0855 16.7363 16.7604 -2.20527e-016 9.93923e-017 -3.97569e-016 12.9541 18.8948 2.6782 -19.2515 2.55854 -6.50719 26.2666 0.5486 -4.0542 -52.0595 12.2415 -14.2652 54.6704 0.9321 7.0242 1.84495 -0.572982 -20.5147 52.4557 -0.9324 5.7058 12.68 -0.337929 -8.13492 27.3527 -0.3203 4.6354 -33.5245 4.03447 0.27348 6.9025 0.1377 0.6199 -21.242 1.83914 1.92818 6.7755 -0.2326 0.7745 -17.6825 1.96727 -0.46035 9.8642 -2.831 8.1733 11.3723 -5.36211 -2.21475 8.0692 -4.4193 6.4299 -6.24731 15.3748 18.2424 6.7468 -3.6274 4.6394 12.8569 -21.2743 -11.5061 27.224 -0.2989 9.8593 -21.8931 2.6491 -3.69209 7.0183 -0.1543 0.777 -22.6852 2.40391 0.510025 6.4569 -0.1256 0.6937 -9.63171 1.02268 0.023892 25.8273 -0.6126 0.0868 -34.4936 4.09104 1.34957 6.2955 0.1052 0.4118 -35.2019 2.02681 3.95496 6.315 0.079 0.7471 -6.76844 0.754531 -3.96108 23.0359 -1.5146 -4.9212 -31.4628 3.83032 0.234293 6.5099 0.2003 0.5558 -19.179 1.57136 1.07396 4.1296 -0.0413 0.3994 -13.7416 1.30449 0.263657 -12.6373 19.2153 2.1809 16.738 0.518743 -1.23875 -26.3323 0.6126 -5.423 64.8537 3.26042 -9.69067 -55.8405 -0.451 -0.1976 -0.659348 -0.16169 7.63056 -50.2693 -0.9952 1.8626 3.01567 15.0132 0.531528 -26.0132 -0.6833 1.5036 43.3718 0.729199 -2.31628 -6.1576 0.141 0.0941 39.443 0.545742 -0.318479 -7.2704 -0.3348 0.122 22.8372 0.372522 -0.180314 -9.0209 -3.67 6.9854 -6.11652 -9.121 4.6053 -7.9552 -4.0356 5.2472 -5.75233 13.9057 -21.3545 -6.5146 -3.6908 4.179 -17.4724 -10.0564 14.0009 -26.2498 -0.8312 6.6599 27.2186 0.755501 0.658108 -7.0902 0.0154 0.1648 42.6332 0.88257 -0.256636 -7.4109 -0.1674 0.1538 23.1904 0.472727 -0.493672 -24.2596 -0.9504 -2.5755 50.5303 0.808078 -4.4805 -6.8571 -0.0068 -0.072 39.3047 -0.384439 -1.81937 -6.8326 -0.1266 0.154 23.3853 0.455354 2.28862 -21.4052 -1.733 -7.2503 53.0942 -0.044074 -1.97064 -5.9395 0.0245 0.0143 44.1889 0.0746841 -0.198448 -3.7637 -0.0874 0.0158 34.6048 0.128565 -0.540589 18.5282 -13.8334 2.6624 -5.91151 0.548183 5.79724 -0.3759 -85.1833 -3.2383 -0.0784587 14.556 -7.56052 0.4815 -85.4161 -5.1266 5.28025 -11.8203 0.314865 2.6925 -21.3949 24.2907 1.07343e-006 -3.40431 -1.65095e-006 -18.4363 -14.4167 0.1605 -9.74073 -30.6005 -10.6991 1.6634 -84.7366 -3.3661 -1.97343 22.1097 -9.03223 0.5261 -85.2452 -5.4264 6.41847 1.44213 -3.40835 -3.1537 -21.4911 24.8182 -1.38828e-007 -4.59791 4.25148e-006 
7.2003 203.017 0.344454 3.334 0.949195 8.1514 -0.2002 19.8047 -3.8901 -1.09006 4.62427 -4.86261 -0.2704 23.5003 -2.3603 -0.0814938 0.453457 -1.30665 -0.1091 27.8076 -1.1954 -0.0785652 0.458276 -1.30426 0.573 31.0619 3.7617 -0.410895 -1.40424 -0.0112736 1.0419 22.231 6.5135 -1.74807 -4.43861 -3.35775 0.1539 38.3123 10.8264 -9.31803e-017 4.96962e-017 -1.19271e-015 -6.1169 16.4759 16.457 -9.31803e-017 4.96962e-017 -1.19271e-015 6.0855 16.7363 16.7604 -9.31803e-017 4.96962e-017 -1.19271e-015 12.9541 18.8948 2.6782 -19.3234 2.71596 -7.09969 26.2666 0.5486 -4.0542 -48.9787 12.0459 -17.9364 54.6704 0.9321 7.0242 1.82639 -0.603563 -22.5348 52.4557 -0.9324 5.7058 13.629 -1.85846 -7.2251 27.3527 -0.3203 4.6354 -33.979 4.07941 0.336154 6.9025 0.1377 0.6199 -21.5244 1.86184 1.93948 6.7755 -0.2326 0.7745 -17.9518 1.99596 -0.4489 9.8642 -2.831 8.1733 11.3723 -5.36211 -2.21475 8.0692 -4.4193 6.4299 -6.2548 15.3767 18.2569 6.7468 -3.6274 4.6394 12.5745 -20.8743 -11.3699 27.224 -0.2989 9.8593 -22.3669 2.70247 -3.698 7.0183 -0.1543 0.777 -22.9326 2.4283 0.522763 6.4569 -0.1256 0.6937 -9.71043 1.0309 0.026036 25.8273 -0.6126 0.0868 -34.8181 4.12498 1.25896 6.2955 0.1052 0.4118 -35.6828 2.05011 3.97628 6.315 0.079 0.7471 -6.97891 0.779005 -3.95626 23.0359 -1.5146 -4.9212 -31.6048 3.84454 0.258137 6.5099 0.2003 0.5558 -19.4905 1.59557 1.08495 4.1296 -0.0413 0.3994 -13.924 1.32131 0.269244 -12.6373 19.2153 2.1809 16.5388 0.402064 -1.72075 -26.3323 0.6126 -5.423 64.9548 2.39035 -11.614 -55.8405 -0.451 -0.1976 -0.660448 -0.153992 7.23756 -50.2693 -0.9952 1.8626 3.76418 17.3239 -0.783114 -26.0132 -0.6833 1.5036 41.3109 0.700205 -2.51363 -6.1576 0.141 0.0941 37.5114 0.523664 -0.298891 -7.2704 -0.3348 0.122 20.9339 0.343397 -0.166951 -9.0209 -3.67 6.9854 -6.11652 -9.121 4.6053 -7.9552 -4.0356 5.2472 -5.89163 13.7935 -21.1306 -6.5146 -3.6908 4.179 -17.0605 -9.76493 13.6514 -26.2498 -0.8312 6.6599 25.2924 0.716195 0.463734 -7.0902 0.0154 0.1648 41.1063 0.857352 -0.231618 -7.4109 -0.1674 0.1538 21.1193 0.433807 -0.475143 -24.2596 -0.9504 -2.5755 48.7832 0.791479 -4.68238 -6.8571 -0.0068 -0.072 37.5613 -0.36827 -1.82843 -6.8326 -0.1266 0.154 21.7212 0.421548 2.30513 -21.4052 -1.733 -7.2503 51.4257 -0.0974245 -2.25138 -5.9395 0.0245 0.0143 42.8049 0.07358 -0.194777 -3.7637 -0.0874 0.0158 33.1408 0.124536 -0.535486 18.5282 -13.8334 2.6624 -6.05689 2.31151 5.96381 -0.3759 -85.1833 -3.2383 -0.0184199 15.1552 -8.17137 0.4815 -85.4161 -5.1266 5.07116 -14.5881 0.505174 2.6925 -21.3949 24.2907 1.94593e-008 -3.82951 -5.30476e-007 -18.4363 -14.4167 0.1605 -10.756 -31.6033 -11.1487 1.6634 -84.7366 -3.3661 -2.04511 14.9024 -9.39863 0.5261 -85.2452 -5.4264 8.30263 1.03113 -4.40394 -3.1537 -21.4911 24.8182 2.55681e-006 -4.216 1.73618e-006 
